# xmcd CD database file
#
# Track frame offsets:
#	150
#	15582
#	27887
#	52157
#	70125
#	86140
#	100660
#	124935
#	140407
#	156277
#	175860
#	195545
#
# Disc length: 2778 seconds
#
# Revision: 0
# Processed by: cddbd v1.5PL3 Copyright (c) Steve Scherf et al.
# Submitted via: CDex 1.50beta8
#
DISCID=a00ad80c
DTITLE=Mott The Hoople - Greatest Hits
DYEAR=1900
DGENRE=Rock
TTITLE0=All The Way From Memphis
TTITLE1=Honaloochie Boogie
TTITLE2=Hymn For The Dudes
TTITLE3=Born Late '58
TTITLE4=All The Young Dudes
TTITLE5=Roll Away The Stone
TTITLE6=Ballad Of Mott
TTITLE7=Golden Age Of Rock 'N' Roll
TTITLE8=Foxy Foxy
TTITLE9=Saturday Gigs
TTITLE10=Sweet Jane
TTITLE11=One Of The Boys
EXTD=
EXTT0=
EXTT1=
EXTT2=
EXTT3=
EXTT4=
EXTT5=
EXTT6=
EXTT7=
EXTT8=
EXTT9=
EXTT10=
EXTT11=
PLAYORDER=
